<mxfile host="app.diagrams.net" modified="2023-09-06T00:40:24.444Z" agent="Mozilla/5.0 (Windows NT 10.0; Win64; x64) AppleWebKit/537.36 (KHTML, like Gecko) Chrome/116.0.0.0 Safari/537.36" etag="BdieZP04Eh1bkttM1ABB" version="21.6.9" type="device">
  <diagram name="Page-1" id="BsBtJZdpCbDv1z-KSwcp">
    <mxGraphModel dx="869" dy="1185" grid="1" gridSize="10" guides="0" tooltips="1" connect="0" arrows="1" fold="1" page="1" pageScale="1" pageWidth="850" pageHeight="1100" math="0" shadow="0">
      <root>
        <mxCell id="0" />
        <mxCell id="1" parent="0" />
        <mxCell id="kdKn8kybxeGl5Rz80cqv-15" value="" style="rounded=0;whiteSpace=wrap;html=1;" parent="1" vertex="1">
          <mxGeometry x="150" y="640" width="320" height="320" as="geometry" />
        </mxCell>
        <mxCell id="kdKn8kybxeGl5Rz80cqv-3" value="" style="ellipse;whiteSpace=wrap;html=1;aspect=fixed;fillColor=none;" parent="1" vertex="1">
          <mxGeometry x="210" y="700" width="210" height="210" as="geometry" />
        </mxCell>
        <mxCell id="PWxH9HgvDrEOuIeiDxhd-13" value="" style="rounded=0;whiteSpace=wrap;html=1;fillColor=none;" parent="1" vertex="1">
          <mxGeometry x="240" y="420" width="110" height="110" as="geometry" />
        </mxCell>
        <mxCell id="k1mLw7IAGcoa_0EAjVNv-22" value="&lt;font style=&quot;font-size: 9px;&quot;&gt;3.5cm&lt;/font&gt;" style="text;html=1;align=center;verticalAlign=middle;resizable=0;points=[];autosize=1;strokeColor=none;fillColor=none;" parent="1" vertex="1">
          <mxGeometry x="300" y="464" width="50" height="30" as="geometry" />
        </mxCell>
        <mxCell id="PWxH9HgvDrEOuIeiDxhd-4" value="" style="rounded=0;whiteSpace=wrap;html=1;" parent="1" vertex="1">
          <mxGeometry x="730" y="105" width="10" height="255" as="geometry" />
        </mxCell>
        <mxCell id="PWxH9HgvDrEOuIeiDxhd-5" value="" style="rounded=0;whiteSpace=wrap;html=1;" parent="1" vertex="1">
          <mxGeometry x="620" y="105" width="120" height="10" as="geometry" />
        </mxCell>
        <mxCell id="PWxH9HgvDrEOuIeiDxhd-9" value="" style="rounded=0;whiteSpace=wrap;html=1;rotation=0;" parent="1" vertex="1">
          <mxGeometry x="490" y="420" width="110" height="100.25" as="geometry" />
        </mxCell>
        <mxCell id="PWxH9HgvDrEOuIeiDxhd-10" value="" style="rounded=0;whiteSpace=wrap;html=1;" parent="1" vertex="1">
          <mxGeometry x="590" y="420" width="10" height="100" as="geometry" />
        </mxCell>
        <mxCell id="PWxH9HgvDrEOuIeiDxhd-12" value="5mm" style="text;html=1;align=center;verticalAlign=middle;resizable=0;points=[];autosize=1;strokeColor=none;fillColor=none;fontSize=6;" parent="1" vertex="1">
          <mxGeometry x="718" y="363" width="40" height="20" as="geometry" />
        </mxCell>
        <mxCell id="PWxH9HgvDrEOuIeiDxhd-34" value="" style="ellipse;whiteSpace=wrap;html=1;aspect=fixed;fillColor=#000000;" parent="1" vertex="1">
          <mxGeometry x="279" y="460" width="5" height="5" as="geometry" />
        </mxCell>
        <mxCell id="PWxH9HgvDrEOuIeiDxhd-35" value="" style="ellipse;whiteSpace=wrap;html=1;aspect=fixed;fillColor=#000000;" parent="1" vertex="1">
          <mxGeometry x="301" y="460" width="5" height="5" as="geometry" />
        </mxCell>
        <mxCell id="PWxH9HgvDrEOuIeiDxhd-36" value="" style="ellipse;whiteSpace=wrap;html=1;aspect=fixed;fillColor=#000000;" parent="1" vertex="1">
          <mxGeometry x="301" y="485" width="5" height="5" as="geometry" />
        </mxCell>
        <mxCell id="PWxH9HgvDrEOuIeiDxhd-37" value="" style="ellipse;whiteSpace=wrap;html=1;aspect=fixed;fillColor=#000000;" parent="1" vertex="1">
          <mxGeometry x="279" y="485" width="5" height="5" as="geometry" />
        </mxCell>
        <mxCell id="PWxH9HgvDrEOuIeiDxhd-44" value="" style="endArrow=classic;html=1;rounded=0;entryX=1.038;entryY=0.524;entryDx=0;entryDy=0;entryPerimeter=0;" parent="1" target="PWxH9HgvDrEOuIeiDxhd-35" edge="1">
          <mxGeometry width="50" height="50" relative="1" as="geometry">
            <mxPoint x="400" y="440" as="sourcePoint" />
            <mxPoint x="430" y="360" as="targetPoint" />
          </mxGeometry>
        </mxCell>
        <mxCell id="PWxH9HgvDrEOuIeiDxhd-45" value="2.85mm&lt;br&gt;(diameter)" style="text;html=1;align=center;verticalAlign=middle;resizable=0;points=[];autosize=1;strokeColor=none;fillColor=none;" parent="1" vertex="1">
          <mxGeometry x="385" y="419" width="80" height="40" as="geometry" />
        </mxCell>
        <mxCell id="PWxH9HgvDrEOuIeiDxhd-46" value="" style="endArrow=classic;startArrow=classic;html=1;rounded=0;" parent="1" edge="1">
          <mxGeometry width="50" height="50" relative="1" as="geometry">
            <mxPoint x="740" y="100" as="sourcePoint" />
            <mxPoint x="620" y="100" as="targetPoint" />
          </mxGeometry>
        </mxCell>
        <mxCell id="PWxH9HgvDrEOuIeiDxhd-47" value="6cm" style="text;html=1;align=center;verticalAlign=middle;resizable=0;points=[];autosize=1;strokeColor=none;fillColor=none;" parent="1" vertex="1">
          <mxGeometry x="580" y="80" width="50" height="30" as="geometry" />
        </mxCell>
        <mxCell id="PWxH9HgvDrEOuIeiDxhd-50" value="" style="endArrow=classic;startArrow=classic;html=1;rounded=0;" parent="1" edge="1">
          <mxGeometry width="50" height="50" relative="1" as="geometry">
            <mxPoint x="330" y="800" as="sourcePoint" />
            <mxPoint x="330" y="640" as="targetPoint" />
          </mxGeometry>
        </mxCell>
        <mxCell id="PWxH9HgvDrEOuIeiDxhd-54" value="" style="ellipse;whiteSpace=wrap;html=1;aspect=fixed;fillColor=#000000;" parent="1" vertex="1">
          <mxGeometry x="550" y="460" width="5" height="5" as="geometry" />
        </mxCell>
        <mxCell id="PWxH9HgvDrEOuIeiDxhd-55" value="" style="ellipse;whiteSpace=wrap;html=1;aspect=fixed;fillColor=#000000;" parent="1" vertex="1">
          <mxGeometry x="530" y="480" width="5" height="5" as="geometry" />
        </mxCell>
        <mxCell id="PWxH9HgvDrEOuIeiDxhd-56" value="" style="ellipse;whiteSpace=wrap;html=1;aspect=fixed;fillColor=#000000;" parent="1" vertex="1">
          <mxGeometry x="530" y="460" width="5" height="5" as="geometry" />
        </mxCell>
        <mxCell id="PWxH9HgvDrEOuIeiDxhd-57" value="" style="ellipse;whiteSpace=wrap;html=1;aspect=fixed;fillColor=#000000;" parent="1" vertex="1">
          <mxGeometry x="550" y="480" width="5" height="5" as="geometry" />
        </mxCell>
        <mxCell id="PWxH9HgvDrEOuIeiDxhd-59" value="Side View" style="text;html=1;align=center;verticalAlign=middle;resizable=0;points=[];autosize=1;strokeColor=none;fillColor=none;" parent="1" vertex="1">
          <mxGeometry x="640" y="50" width="80" height="30" as="geometry" />
        </mxCell>
        <mxCell id="PWxH9HgvDrEOuIeiDxhd-60" value="Top View" style="text;html=1;align=center;verticalAlign=middle;resizable=0;points=[];autosize=1;strokeColor=none;fillColor=none;" parent="1" vertex="1">
          <mxGeometry x="260" y="390" width="70" height="30" as="geometry" />
        </mxCell>
        <mxCell id="PWxH9HgvDrEOuIeiDxhd-61" value="Bottom view" style="text;html=1;align=center;verticalAlign=middle;resizable=0;points=[];autosize=1;strokeColor=none;fillColor=none;" parent="1" vertex="1">
          <mxGeometry x="500" y="390" width="90" height="30" as="geometry" />
        </mxCell>
        <mxCell id="PWxH9HgvDrEOuIeiDxhd-62" value="" style="endArrow=classic;html=1;rounded=0;entryX=-0.2;entryY=0.2;entryDx=0;entryDy=0;entryPerimeter=0;" parent="1" target="PWxH9HgvDrEOuIeiDxhd-56" edge="1">
          <mxGeometry width="50" height="50" relative="1" as="geometry">
            <mxPoint x="450" y="440" as="sourcePoint" />
            <mxPoint x="380" y="340" as="targetPoint" />
          </mxGeometry>
        </mxCell>
        <mxCell id="k1mLw7IAGcoa_0EAjVNv-1" value="" style="endArrow=classic;startArrow=classic;html=1;rounded=0;" parent="1" edge="1">
          <mxGeometry width="50" height="50" relative="1" as="geometry">
            <mxPoint x="350" y="540" as="sourcePoint" />
            <mxPoint x="240" y="540" as="targetPoint" />
          </mxGeometry>
        </mxCell>
        <mxCell id="k1mLw7IAGcoa_0EAjVNv-2" value="6cm" style="text;html=1;align=center;verticalAlign=middle;resizable=0;points=[];autosize=1;strokeColor=none;fillColor=none;" parent="1" vertex="1">
          <mxGeometry x="270" y="540" width="50" height="30" as="geometry" />
        </mxCell>
        <mxCell id="k1mLw7IAGcoa_0EAjVNv-3" value="" style="endArrow=classic;startArrow=classic;html=1;rounded=0;" parent="1" edge="1">
          <mxGeometry width="50" height="50" relative="1" as="geometry">
            <mxPoint x="230" y="530" as="sourcePoint" />
            <mxPoint x="230" y="420" as="targetPoint" />
          </mxGeometry>
        </mxCell>
        <mxCell id="k1mLw7IAGcoa_0EAjVNv-4" value="6cm" style="text;html=1;align=center;verticalAlign=middle;resizable=0;points=[];autosize=1;strokeColor=none;fillColor=none;" parent="1" vertex="1">
          <mxGeometry x="190" y="460" width="50" height="30" as="geometry" />
        </mxCell>
        <mxCell id="k1mLw7IAGcoa_0EAjVNv-6" value="" style="endArrow=classic;startArrow=classic;html=1;rounded=0;" parent="1" edge="1">
          <mxGeometry width="50" height="50" relative="1" as="geometry">
            <mxPoint x="750" y="358" as="sourcePoint" />
            <mxPoint x="750" y="108" as="targetPoint" />
          </mxGeometry>
        </mxCell>
        <mxCell id="k1mLw7IAGcoa_0EAjVNv-7" value="13.7cm" style="text;html=1;align=center;verticalAlign=middle;resizable=0;points=[];autosize=1;strokeColor=none;fillColor=none;" parent="1" vertex="1">
          <mxGeometry x="750" y="200" width="60" height="30" as="geometry" />
        </mxCell>
        <mxCell id="k1mLw7IAGcoa_0EAjVNv-8" value="" style="endArrow=classic;startArrow=classic;html=1;rounded=0;" parent="1" edge="1">
          <mxGeometry width="50" height="50" relative="1" as="geometry">
            <mxPoint x="600" y="543" as="sourcePoint" />
            <mxPoint x="490" y="543" as="targetPoint" />
          </mxGeometry>
        </mxCell>
        <mxCell id="k1mLw7IAGcoa_0EAjVNv-9" value="6cm" style="text;html=1;align=center;verticalAlign=middle;resizable=0;points=[];autosize=1;strokeColor=none;fillColor=none;" parent="1" vertex="1">
          <mxGeometry x="530" y="540" width="50" height="30" as="geometry" />
        </mxCell>
        <mxCell id="k1mLw7IAGcoa_0EAjVNv-10" value="5mm" style="text;html=1;align=center;verticalAlign=middle;resizable=0;points=[];autosize=1;strokeColor=none;fillColor=none;fontSize=6;" parent="1" vertex="1">
          <mxGeometry x="576" y="524" width="40" height="20" as="geometry" />
        </mxCell>
        <mxCell id="k1mLw7IAGcoa_0EAjVNv-11" value="" style="endArrow=classic;startArrow=classic;html=1;rounded=0;strokeWidth=0;" parent="1" edge="1">
          <mxGeometry width="50" height="50" relative="1" as="geometry">
            <mxPoint x="590" y="526" as="sourcePoint" />
            <mxPoint x="600" y="526" as="targetPoint" />
          </mxGeometry>
        </mxCell>
        <mxCell id="k1mLw7IAGcoa_0EAjVNv-12" value="" style="endArrow=classic;startArrow=classic;html=1;rounded=0;" parent="1" edge="1">
          <mxGeometry width="50" height="50" relative="1" as="geometry">
            <mxPoint x="610" y="520" as="sourcePoint" />
            <mxPoint x="610" y="420" as="targetPoint" />
          </mxGeometry>
        </mxCell>
        <mxCell id="k1mLw7IAGcoa_0EAjVNv-13" value="6cm" style="text;html=1;align=center;verticalAlign=middle;resizable=0;points=[];autosize=1;strokeColor=none;fillColor=none;" parent="1" vertex="1">
          <mxGeometry x="600" y="450" width="50" height="30" as="geometry" />
        </mxCell>
        <mxCell id="kdKn8kybxeGl5Rz80cqv-1" value="" style="endArrow=classic;startArrow=classic;html=1;rounded=0;strokeWidth=0;" parent="1" edge="1">
          <mxGeometry width="50" height="50" relative="1" as="geometry">
            <mxPoint x="270" y="490" as="sourcePoint" />
            <mxPoint x="270" y="460" as="targetPoint" />
          </mxGeometry>
        </mxCell>
        <mxCell id="kdKn8kybxeGl5Rz80cqv-2" value="14mm" style="text;html=1;align=center;verticalAlign=middle;resizable=0;points=[];autosize=1;strokeColor=none;fillColor=none;fontSize=10;" parent="1" vertex="1">
          <mxGeometry x="280" y="780" width="50" height="30" as="geometry" />
        </mxCell>
        <mxCell id="kdKn8kybxeGl5Rz80cqv-4" value="" style="ellipse;whiteSpace=wrap;html=1;aspect=fixed;fillColor=#000000;" parent="1" vertex="1">
          <mxGeometry x="260" y="750" width="20" height="20" as="geometry" />
        </mxCell>
        <mxCell id="kdKn8kybxeGl5Rz80cqv-5" value="" style="ellipse;whiteSpace=wrap;html=1;aspect=fixed;fillColor=#000000;" parent="1" vertex="1">
          <mxGeometry x="350" y="750" width="20" height="20" as="geometry" />
        </mxCell>
        <mxCell id="kdKn8kybxeGl5Rz80cqv-6" value="" style="ellipse;whiteSpace=wrap;html=1;aspect=fixed;fillColor=#000000;" parent="1" vertex="1">
          <mxGeometry x="260" y="840" width="20" height="20" as="geometry" />
        </mxCell>
        <mxCell id="kdKn8kybxeGl5Rz80cqv-7" value="" style="ellipse;whiteSpace=wrap;html=1;aspect=fixed;fillColor=#000000;" parent="1" vertex="1">
          <mxGeometry x="350" y="840" width="20" height="20" as="geometry" />
        </mxCell>
        <mxCell id="kdKn8kybxeGl5Rz80cqv-8" value="" style="endArrow=classic;startArrow=classic;html=1;rounded=0;" parent="1" edge="1">
          <mxGeometry width="50" height="50" relative="1" as="geometry">
            <mxPoint x="290" y="860" as="sourcePoint" />
            <mxPoint x="290" y="750" as="targetPoint" />
          </mxGeometry>
        </mxCell>
        <mxCell id="kdKn8kybxeGl5Rz80cqv-9" value="" style="endArrow=classic;startArrow=classic;html=1;rounded=0;" parent="1" edge="1">
          <mxGeometry width="50" height="50" relative="1" as="geometry">
            <mxPoint x="260" y="840" as="sourcePoint" />
            <mxPoint x="260" y="770" as="targetPoint" />
          </mxGeometry>
        </mxCell>
        <mxCell id="kdKn8kybxeGl5Rz80cqv-10" value="8mm" style="text;html=1;align=center;verticalAlign=middle;resizable=0;points=[];autosize=1;strokeColor=none;fillColor=none;fontSize=10;" parent="1" vertex="1">
          <mxGeometry x="220" y="790" width="50" height="30" as="geometry" />
        </mxCell>
        <mxCell id="kdKn8kybxeGl5Rz80cqv-11" value="" style="endArrow=classic;startArrow=classic;html=1;rounded=0;" parent="1" edge="1">
          <mxGeometry width="50" height="50" relative="1" as="geometry">
            <mxPoint x="380" y="850" as="sourcePoint" />
            <mxPoint x="380" y="760" as="targetPoint" />
          </mxGeometry>
        </mxCell>
        <mxCell id="kdKn8kybxeGl5Rz80cqv-12" value="11mm" style="text;html=1;align=center;verticalAlign=middle;resizable=0;points=[];autosize=1;strokeColor=none;fillColor=none;fontSize=10;" parent="1" vertex="1">
          <mxGeometry x="340" y="790" width="50" height="30" as="geometry" />
        </mxCell>
        <mxCell id="kdKn8kybxeGl5Rz80cqv-13" value="35mm" style="text;html=1;align=center;verticalAlign=middle;resizable=0;points=[];autosize=1;strokeColor=none;fillColor=none;" parent="1" vertex="1">
          <mxGeometry x="280" y="710" width="60" height="30" as="geometry" />
        </mxCell>
        <mxCell id="kdKn8kybxeGl5Rz80cqv-17" value="" style="endArrow=classic;startArrow=classic;html=1;rounded=0;" parent="1" edge="1">
          <mxGeometry width="50" height="50" relative="1" as="geometry">
            <mxPoint x="740" y="90" as="sourcePoint" />
            <mxPoint x="670" y="90" as="targetPoint" />
          </mxGeometry>
        </mxCell>
        <mxCell id="kdKn8kybxeGl5Rz80cqv-21" value="35mm" style="text;html=1;align=center;verticalAlign=middle;resizable=0;points=[];autosize=1;strokeColor=none;fillColor=none;" parent="1" vertex="1">
          <mxGeometry x="671" y="66" width="60" height="30" as="geometry" />
        </mxCell>
        <mxCell id="kdKn8kybxeGl5Rz80cqv-22" value="Top View" style="text;html=1;align=center;verticalAlign=middle;resizable=0;points=[];autosize=1;strokeColor=none;fillColor=none;" parent="1" vertex="1">
          <mxGeometry x="280" y="610" width="70" height="30" as="geometry" />
        </mxCell>
        <mxCell id="kdKn8kybxeGl5Rz80cqv-23" value="" style="endArrow=classic;startArrow=classic;html=1;rounded=0;" parent="1" edge="1">
          <mxGeometry width="50" height="50" relative="1" as="geometry">
            <mxPoint x="470" y="970" as="sourcePoint" />
            <mxPoint x="150" y="970" as="targetPoint" />
          </mxGeometry>
        </mxCell>
        <mxCell id="kdKn8kybxeGl5Rz80cqv-24" value="6cm" style="text;html=1;align=center;verticalAlign=middle;resizable=0;points=[];autosize=1;strokeColor=none;fillColor=none;" parent="1" vertex="1">
          <mxGeometry x="280" y="970" width="50" height="30" as="geometry" />
        </mxCell>
        <mxCell id="kdKn8kybxeGl5Rz80cqv-25" value="" style="endArrow=classic;startArrow=classic;html=1;rounded=0;" parent="1" edge="1">
          <mxGeometry width="50" height="50" relative="1" as="geometry">
            <mxPoint x="140" y="960" as="sourcePoint" />
            <mxPoint x="140" y="640" as="targetPoint" />
          </mxGeometry>
        </mxCell>
        <mxCell id="kdKn8kybxeGl5Rz80cqv-26" value="6cm" style="text;html=1;align=center;verticalAlign=middle;resizable=0;points=[];autosize=1;strokeColor=none;fillColor=none;" parent="1" vertex="1">
          <mxGeometry x="100" y="800" width="50" height="30" as="geometry" />
        </mxCell>
        <mxCell id="33aO2TNAjWirLoOw_Xwe-1" value="" style="rounded=0;whiteSpace=wrap;html=1;" parent="1" vertex="1">
          <mxGeometry x="360" y="100" width="110" height="200" as="geometry" />
        </mxCell>
        <mxCell id="33aO2TNAjWirLoOw_Xwe-2" value="" style="rounded=0;whiteSpace=wrap;html=1;" parent="1" vertex="1">
          <mxGeometry x="360" y="100" width="110" height="10" as="geometry" />
        </mxCell>
        <mxCell id="33aO2TNAjWirLoOw_Xwe-3" value="" style="ellipse;whiteSpace=wrap;html=1;aspect=fixed;fillColor=#000000;" parent="1" vertex="1">
          <mxGeometry x="380" y="140" width="10" height="10" as="geometry" />
        </mxCell>
        <mxCell id="33aO2TNAjWirLoOw_Xwe-4" value="" style="endArrow=classic;startArrow=classic;html=1;rounded=0;strokeColor=#FF0000;" parent="1" edge="1">
          <mxGeometry width="50" height="50" relative="1" as="geometry">
            <mxPoint x="477" y="300" as="sourcePoint" />
            <mxPoint x="477" y="111" as="targetPoint" />
          </mxGeometry>
        </mxCell>
        <mxCell id="33aO2TNAjWirLoOw_Xwe-6" value="" style="ellipse;whiteSpace=wrap;html=1;aspect=fixed;fillColor=#000000;" parent="1" vertex="1">
          <mxGeometry x="440" y="140" width="10" height="10" as="geometry" />
        </mxCell>
        <mxCell id="33aO2TNAjWirLoOw_Xwe-7" value="" style="ellipse;whiteSpace=wrap;html=1;aspect=fixed;fillColor=#000000;" parent="1" vertex="1">
          <mxGeometry x="440" y="200" width="10" height="10" as="geometry" />
        </mxCell>
        <mxCell id="33aO2TNAjWirLoOw_Xwe-12" value="4mm" style="text;html=1;align=center;verticalAlign=middle;resizable=0;points=[];autosize=1;strokeColor=none;fillColor=none;fontSize=6;" parent="1" vertex="1">
          <mxGeometry x="365" y="214" width="40" height="20" as="geometry" />
        </mxCell>
        <mxCell id="33aO2TNAjWirLoOw_Xwe-8" value="" style="ellipse;whiteSpace=wrap;html=1;aspect=fixed;fillColor=#000000;" parent="1" vertex="1">
          <mxGeometry x="380" y="200" width="10" height="10" as="geometry" />
        </mxCell>
        <mxCell id="33aO2TNAjWirLoOw_Xwe-9" value="" style="endArrow=classic;startArrow=classic;html=1;rounded=0;strokeColor=#FF0000;" parent="1" edge="1">
          <mxGeometry width="50" height="50" relative="1" as="geometry">
            <mxPoint x="445" y="206" as="sourcePoint" />
            <mxPoint x="445" y="146" as="targetPoint" />
          </mxGeometry>
        </mxCell>
        <mxCell id="33aO2TNAjWirLoOw_Xwe-10" value="&lt;font style=&quot;font-size: 7px;&quot;&gt;31mm&lt;/font&gt;" style="text;html=1;align=center;verticalAlign=middle;resizable=0;points=[];autosize=1;strokeColor=none;fillColor=none;fontSize=10;" parent="1" vertex="1">
          <mxGeometry x="436" y="160" width="40" height="30" as="geometry" />
        </mxCell>
        <mxCell id="33aO2TNAjWirLoOw_Xwe-11" value="" style="endArrow=classic;startArrow=classic;html=1;rounded=0;strokeWidth=0;" parent="1" edge="1">
          <mxGeometry width="50" height="50" relative="1" as="geometry">
            <mxPoint x="380" y="216" as="sourcePoint" />
            <mxPoint x="390" y="216" as="targetPoint" />
          </mxGeometry>
        </mxCell>
        <mxCell id="33aO2TNAjWirLoOw_Xwe-13" value="" style="endArrow=classic;startArrow=classic;html=1;rounded=0;strokeColor=#FF0000;" parent="1" edge="1">
          <mxGeometry width="50" height="50" relative="1" as="geometry">
            <mxPoint x="357" y="145" as="sourcePoint" />
            <mxPoint x="387" y="145" as="targetPoint" />
          </mxGeometry>
        </mxCell>
        <mxCell id="33aO2TNAjWirLoOw_Xwe-14" value="1.65cm" style="text;html=1;align=center;verticalAlign=middle;resizable=0;points=[];autosize=1;strokeColor=none;fillColor=none;fontSize=7;" parent="1" vertex="1">
          <mxGeometry x="348" y="144" width="50" height="20" as="geometry" />
        </mxCell>
        <mxCell id="33aO2TNAjWirLoOw_Xwe-15" value="" style="endArrow=classic;startArrow=classic;html=1;rounded=0;" parent="1" edge="1">
          <mxGeometry width="50" height="50" relative="1" as="geometry">
            <mxPoint x="470" y="310" as="sourcePoint" />
            <mxPoint x="360" y="310" as="targetPoint" />
          </mxGeometry>
        </mxCell>
        <mxCell id="33aO2TNAjWirLoOw_Xwe-16" value="6cm" style="text;html=1;align=center;verticalAlign=middle;resizable=0;points=[];autosize=1;strokeColor=none;fillColor=none;" parent="1" vertex="1">
          <mxGeometry x="390" y="310" width="50" height="30" as="geometry" />
        </mxCell>
        <mxCell id="33aO2TNAjWirLoOw_Xwe-17" value="Front View (x-ray)" style="text;html=1;align=center;verticalAlign=middle;resizable=0;points=[];autosize=1;strokeColor=none;fillColor=none;" parent="1" vertex="1">
          <mxGeometry x="355" y="50" width="120" height="30" as="geometry" />
        </mxCell>
        <mxCell id="33aO2TNAjWirLoOw_Xwe-18" value="" style="ellipse;whiteSpace=wrap;html=1;aspect=fixed;fillColor=#000000;" parent="1" vertex="1">
          <mxGeometry x="406" y="163" width="20" height="20" as="geometry" />
        </mxCell>
        <mxCell id="33aO2TNAjWirLoOw_Xwe-19" value="1cm" style="text;html=1;align=center;verticalAlign=middle;resizable=0;points=[];autosize=1;strokeColor=none;fillColor=none;fontSize=7;" parent="1" vertex="1">
          <mxGeometry x="395" y="145" width="40" height="20" as="geometry" />
        </mxCell>
        <mxCell id="33aO2TNAjWirLoOw_Xwe-20" value="" style="endArrow=classic;startArrow=classic;html=1;rounded=0;strokeWidth=0;" parent="1" edge="1">
          <mxGeometry width="50" height="50" relative="1" as="geometry">
            <mxPoint x="406" y="160" as="sourcePoint" />
            <mxPoint x="426" y="160" as="targetPoint" />
          </mxGeometry>
        </mxCell>
        <mxCell id="33aO2TNAjWirLoOw_Xwe-22" value="2.19cm" style="text;html=1;align=center;verticalAlign=middle;resizable=0;points=[];autosize=1;strokeColor=none;fillColor=none;fontSize=7;" parent="1" vertex="1">
          <mxGeometry x="361" y="178" width="50" height="20" as="geometry" />
        </mxCell>
        <mxCell id="33aO2TNAjWirLoOw_Xwe-21" value="" style="endArrow=classic;startArrow=classic;html=1;rounded=0;strokeColor=#FF0000;" parent="1" edge="1">
          <mxGeometry width="50" height="50" relative="1" as="geometry">
            <mxPoint x="385" y="205" as="sourcePoint" />
            <mxPoint x="415" y="175" as="targetPoint" />
          </mxGeometry>
        </mxCell>
        <mxCell id="33aO2TNAjWirLoOw_Xwe-23" value="" style="endArrow=classic;startArrow=classic;html=1;rounded=0;strokeWidth=0;" parent="1" edge="1">
          <mxGeometry width="50" height="50" relative="1" as="geometry">
            <mxPoint x="355" y="98" as="sourcePoint" />
            <mxPoint x="355" y="110" as="targetPoint" />
          </mxGeometry>
        </mxCell>
        <mxCell id="33aO2TNAjWirLoOw_Xwe-30" value="&lt;span style=&quot;font-size: 7px; font-weight: normal;&quot;&gt;1.2cm&lt;/span&gt;" style="text;html=1;align=center;verticalAlign=middle;resizable=0;points=[];autosize=1;strokeColor=none;fillColor=none;fontSize=7;fontStyle=1;fontColor=#FF0000;" parent="1" vertex="1">
          <mxGeometry x="436" y="114" width="40" height="20" as="geometry" />
        </mxCell>
        <mxCell id="33aO2TNAjWirLoOw_Xwe-24" value="&lt;font style=&quot;font-size: 10px;&quot;&gt;5mm&lt;/font&gt;" style="text;html=1;align=center;verticalAlign=middle;resizable=0;points=[];autosize=1;strokeColor=none;fillColor=none;" parent="1" vertex="1">
          <mxGeometry x="315" y="88" width="50" height="30" as="geometry" />
        </mxCell>
        <mxCell id="33aO2TNAjWirLoOw_Xwe-25" value="" style="endArrow=classic;startArrow=classic;html=1;rounded=0;strokeColor=#ff0000;" parent="1" edge="1">
          <mxGeometry width="50" height="50" relative="1" as="geometry">
            <mxPoint x="445" y="145" as="sourcePoint" />
            <mxPoint x="385" y="145" as="targetPoint" />
          </mxGeometry>
        </mxCell>
        <mxCell id="33aO2TNAjWirLoOw_Xwe-26" value="&lt;font style=&quot;font-size: 8px;&quot;&gt;31mm&lt;/font&gt;" style="text;html=1;align=center;verticalAlign=middle;resizable=0;points=[];autosize=1;strokeColor=none;fillColor=none;fontSize=10;" parent="1" vertex="1">
          <mxGeometry x="390" y="123" width="50" height="30" as="geometry" />
        </mxCell>
        <mxCell id="33aO2TNAjWirLoOw_Xwe-29" value="" style="endArrow=classic;startArrow=classic;html=1;rounded=0;strokeColor=#FF0000;" parent="1" edge="1">
          <mxGeometry width="50" height="50" relative="1" as="geometry">
            <mxPoint x="445" y="148" as="sourcePoint" />
            <mxPoint x="445" y="108" as="targetPoint" />
          </mxGeometry>
        </mxCell>
        <mxCell id="33aO2TNAjWirLoOw_Xwe-31" value="" style="ellipse;whiteSpace=wrap;html=1;aspect=fixed;fillColor=#000000;" parent="1" vertex="1">
          <mxGeometry x="411" y="260" width="10" height="10" as="geometry" />
        </mxCell>
        <mxCell id="33aO2TNAjWirLoOw_Xwe-32" value="" style="endArrow=classic;startArrow=classic;html=1;rounded=0;fontColor=#FF0000;strokeColor=#FF0000;" parent="1" edge="1">
          <mxGeometry width="50" height="50" relative="1" as="geometry">
            <mxPoint x="416" y="264" as="sourcePoint" />
            <mxPoint x="416" y="174" as="targetPoint" />
          </mxGeometry>
        </mxCell>
        <mxCell id="33aO2TNAjWirLoOw_Xwe-38" value="8mm" style="text;html=1;align=center;verticalAlign=middle;resizable=0;points=[];autosize=1;strokeColor=none;fillColor=none;fontSize=6;fontColor=#FF0000;" parent="1" vertex="1">
          <mxGeometry x="395" y="270" width="40" height="20" as="geometry" />
        </mxCell>
        <mxCell id="33aO2TNAjWirLoOw_Xwe-33" value="&lt;font style=&quot;font-size: 8px;&quot;&gt;7.2cm&lt;/font&gt;" style="text;html=1;align=center;verticalAlign=middle;resizable=0;points=[];autosize=1;strokeColor=none;fillColor=none;fontSize=8;fontColor=#FF0000;" parent="1" vertex="1">
          <mxGeometry x="403" y="209" width="50" height="20" as="geometry" />
        </mxCell>
        <mxCell id="33aO2TNAjWirLoOw_Xwe-36" value="" style="endArrow=classic;startArrow=classic;html=1;rounded=0;strokeWidth=0;strokeColor=#FF0000;" parent="1" edge="1">
          <mxGeometry width="50" height="50" relative="1" as="geometry">
            <mxPoint x="411" y="274" as="sourcePoint" />
            <mxPoint x="421" y="274" as="targetPoint" />
          </mxGeometry>
        </mxCell>
        <mxCell id="33aO2TNAjWirLoOw_Xwe-39" value="" style="endArrow=classic;startArrow=classic;html=1;rounded=0;fontColor=#FF0000;strokeColor=#FF0000;" parent="1" edge="1">
          <mxGeometry width="50" height="50" relative="1" as="geometry">
            <mxPoint x="426" y="302" as="sourcePoint" />
            <mxPoint x="426" y="262" as="targetPoint" />
          </mxGeometry>
        </mxCell>
        <mxCell id="33aO2TNAjWirLoOw_Xwe-40" value="3.75cm" style="text;html=1;align=center;verticalAlign=middle;resizable=0;points=[];autosize=1;strokeColor=none;fillColor=none;fontSize=8;fontColor=#FF0000;" parent="1" vertex="1">
          <mxGeometry x="418" y="270" width="50" height="20" as="geometry" />
        </mxCell>
        <mxCell id="33aO2TNAjWirLoOw_Xwe-41" value="13.7cm" style="text;html=1;align=center;verticalAlign=middle;resizable=0;points=[];autosize=1;strokeColor=none;fillColor=none;fontSize=8;fontColor=#FF0000;" parent="1" vertex="1">
          <mxGeometry x="470" y="180" width="50" height="20" as="geometry" />
        </mxCell>
        <mxCell id="33aO2TNAjWirLoOw_Xwe-42" value="" style="endArrow=classic;startArrow=classic;html=1;rounded=0;strokeWidth=0;" parent="1" edge="1">
          <mxGeometry width="50" height="50" relative="1" as="geometry">
            <mxPoint x="730" y="366" as="sourcePoint" />
            <mxPoint x="740" y="366" as="targetPoint" />
          </mxGeometry>
        </mxCell>
        <mxCell id="33aO2TNAjWirLoOw_Xwe-44" value="5mm" style="text;html=1;align=center;verticalAlign=middle;resizable=0;points=[];autosize=1;strokeColor=none;fillColor=none;fontSize=9;" parent="1" vertex="1">
          <mxGeometry x="580" y="100" width="40" height="20" as="geometry" />
        </mxCell>
        <mxCell id="33aO2TNAjWirLoOw_Xwe-45" value="" style="endArrow=classic;startArrow=classic;html=1;rounded=0;strokeWidth=0;" parent="1" edge="1">
          <mxGeometry width="50" height="50" relative="1" as="geometry">
            <mxPoint x="615" y="105" as="sourcePoint" />
            <mxPoint x="615" y="115" as="targetPoint" />
          </mxGeometry>
        </mxCell>
        <mxCell id="33aO2TNAjWirLoOw_Xwe-52" value="" style="rounded=0;whiteSpace=wrap;html=1;" parent="1" vertex="1">
          <mxGeometry x="94" y="100" width="110" height="200" as="geometry" />
        </mxCell>
        <mxCell id="33aO2TNAjWirLoOw_Xwe-53" value="" style="rounded=0;whiteSpace=wrap;html=1;" parent="1" vertex="1">
          <mxGeometry x="94" y="100" width="110" height="10" as="geometry" />
        </mxCell>
        <mxCell id="33aO2TNAjWirLoOw_Xwe-54" value="" style="ellipse;whiteSpace=wrap;html=1;aspect=fixed;fillColor=#000000;" parent="1" vertex="1">
          <mxGeometry x="114" y="140" width="10" height="10" as="geometry" />
        </mxCell>
        <mxCell id="33aO2TNAjWirLoOw_Xwe-56" value="" style="ellipse;whiteSpace=wrap;html=1;aspect=fixed;fillColor=#000000;" parent="1" vertex="1">
          <mxGeometry x="174" y="140" width="10" height="10" as="geometry" />
        </mxCell>
        <mxCell id="33aO2TNAjWirLoOw_Xwe-57" value="" style="ellipse;whiteSpace=wrap;html=1;aspect=fixed;fillColor=#000000;" parent="1" vertex="1">
          <mxGeometry x="174" y="200" width="10" height="10" as="geometry" />
        </mxCell>
        <mxCell id="33aO2TNAjWirLoOw_Xwe-59" value="" style="ellipse;whiteSpace=wrap;html=1;aspect=fixed;fillColor=#000000;" parent="1" vertex="1">
          <mxGeometry x="114" y="200" width="10" height="10" as="geometry" />
        </mxCell>
        <mxCell id="33aO2TNAjWirLoOw_Xwe-65" value="" style="endArrow=classic;startArrow=classic;html=1;rounded=0;" parent="1" edge="1">
          <mxGeometry width="50" height="50" relative="1" as="geometry">
            <mxPoint x="204" y="307" as="sourcePoint" />
            <mxPoint x="94" y="307" as="targetPoint" />
          </mxGeometry>
        </mxCell>
        <mxCell id="33aO2TNAjWirLoOw_Xwe-66" value="6cm" style="text;html=1;align=center;verticalAlign=middle;resizable=0;points=[];autosize=1;strokeColor=none;fillColor=none;" parent="1" vertex="1">
          <mxGeometry x="124" y="300" width="50" height="30" as="geometry" />
        </mxCell>
        <mxCell id="33aO2TNAjWirLoOw_Xwe-67" value="Front View" style="text;html=1;align=center;verticalAlign=middle;resizable=0;points=[];autosize=1;strokeColor=none;fillColor=none;" parent="1" vertex="1">
          <mxGeometry x="109" y="50" width="80" height="30" as="geometry" />
        </mxCell>
        <mxCell id="33aO2TNAjWirLoOw_Xwe-68" value="" style="ellipse;whiteSpace=wrap;html=1;aspect=fixed;fillColor=#000000;" parent="1" vertex="1">
          <mxGeometry x="140" y="163" width="20" height="20" as="geometry" />
        </mxCell>
        <mxCell id="33aO2TNAjWirLoOw_Xwe-69" value="1cm" style="text;html=1;align=center;verticalAlign=middle;resizable=0;points=[];autosize=1;strokeColor=none;fillColor=none;fontSize=7;" parent="1" vertex="1">
          <mxGeometry x="129" y="145" width="40" height="20" as="geometry" />
        </mxCell>
        <mxCell id="33aO2TNAjWirLoOw_Xwe-70" value="" style="endArrow=classic;startArrow=classic;html=1;rounded=0;strokeWidth=0;" parent="1" edge="1">
          <mxGeometry width="50" height="50" relative="1" as="geometry">
            <mxPoint x="140" y="160" as="sourcePoint" />
            <mxPoint x="160" y="160" as="targetPoint" />
          </mxGeometry>
        </mxCell>
        <mxCell id="33aO2TNAjWirLoOw_Xwe-73" value="" style="endArrow=classic;startArrow=classic;html=1;rounded=0;strokeWidth=0;" parent="1" edge="1">
          <mxGeometry width="50" height="50" relative="1" as="geometry">
            <mxPoint x="89" y="98" as="sourcePoint" />
            <mxPoint x="89" y="110" as="targetPoint" />
          </mxGeometry>
        </mxCell>
        <mxCell id="33aO2TNAjWirLoOw_Xwe-75" value="&lt;font style=&quot;font-size: 9px;&quot;&gt;5mm&lt;/font&gt;" style="text;html=1;align=center;verticalAlign=middle;resizable=0;points=[];autosize=1;strokeColor=none;fillColor=none;" parent="1" vertex="1">
          <mxGeometry x="54" y="88" width="40" height="30" as="geometry" />
        </mxCell>
        <mxCell id="33aO2TNAjWirLoOw_Xwe-79" value="" style="ellipse;whiteSpace=wrap;html=1;aspect=fixed;fillColor=#000000;" parent="1" vertex="1">
          <mxGeometry x="145" y="260" width="10" height="10" as="geometry" />
        </mxCell>
        <mxCell id="33aO2TNAjWirLoOw_Xwe-81" value="8mm" style="text;html=1;align=center;verticalAlign=middle;resizable=0;points=[];autosize=1;strokeColor=none;fillColor=none;fontSize=6;fontColor=#FF0000;" parent="1" vertex="1">
          <mxGeometry x="129" y="240" width="40" height="20" as="geometry" />
        </mxCell>
        <mxCell id="33aO2TNAjWirLoOw_Xwe-83" value="" style="endArrow=classic;startArrow=classic;html=1;rounded=0;strokeWidth=0;strokeColor=#FF0000;" parent="1" edge="1">
          <mxGeometry width="50" height="50" relative="1" as="geometry">
            <mxPoint x="145" y="256" as="sourcePoint" />
            <mxPoint x="155" y="256" as="targetPoint" />
          </mxGeometry>
        </mxCell>
        <mxCell id="33aO2TNAjWirLoOw_Xwe-86" value="13.7cm" style="text;html=1;align=center;verticalAlign=middle;resizable=0;points=[];autosize=1;strokeColor=none;fillColor=none;fontSize=8;fontColor=#FF0000;" parent="1" vertex="1">
          <mxGeometry x="204" y="180" width="50" height="20" as="geometry" />
        </mxCell>
        <mxCell id="33aO2TNAjWirLoOw_Xwe-106" value="" style="rounded=0;whiteSpace=wrap;html=1;fillColor=#FF0000;" parent="1" vertex="1">
          <mxGeometry x="94" y="110" width="20" height="100" as="geometry" />
        </mxCell>
        <mxCell id="33aO2TNAjWirLoOw_Xwe-107" value="" style="rounded=0;whiteSpace=wrap;html=1;fillColor=#FF0000;" parent="1" vertex="1">
          <mxGeometry x="184" y="110" width="20" height="100" as="geometry" />
        </mxCell>
        <mxCell id="33aO2TNAjWirLoOw_Xwe-108" value="" style="rounded=0;whiteSpace=wrap;html=1;fillColor=#FF0000;" parent="1" vertex="1">
          <mxGeometry x="114" y="110" width="70" height="40" as="geometry" />
        </mxCell>
        <mxCell id="33aO2TNAjWirLoOw_Xwe-109" value="" style="rounded=0;whiteSpace=wrap;html=1;rotation=-140;" parent="1" vertex="1">
          <mxGeometry x="610" y="150" width="140" height="10" as="geometry" />
        </mxCell>
        <mxCell id="zkEsj8cqpVbnqTSa8mRh-1" value="" style="endArrow=classic;startArrow=classic;html=1;rounded=0;" edge="1" parent="1">
          <mxGeometry width="50" height="50" relative="1" as="geometry">
            <mxPoint x="292" y="473" as="sourcePoint" />
            <mxPoint x="352" y="473" as="targetPoint" />
          </mxGeometry>
        </mxCell>
        <mxCell id="zkEsj8cqpVbnqTSa8mRh-2" value="&lt;font style=&quot;font-size: 6px;&quot;&gt;1.1cm&lt;/font&gt;" style="text;html=1;align=center;verticalAlign=middle;resizable=0;points=[];autosize=1;strokeColor=none;fillColor=none;fontSize=6;" vertex="1" parent="1">
          <mxGeometry x="240" y="463" width="40" height="20" as="geometry" />
        </mxCell>
        <mxCell id="33aO2TNAjWirLoOw_Xwe-55" value="" style="endArrow=classic;startArrow=classic;html=1;rounded=0;strokeColor=#FF0000;" parent="1" edge="1">
          <mxGeometry width="50" height="50" relative="1" as="geometry">
            <mxPoint x="211" y="300" as="sourcePoint" />
            <mxPoint x="211" y="111" as="targetPoint" />
          </mxGeometry>
        </mxCell>
        <mxCell id="zkEsj8cqpVbnqTSa8mRh-11" value="" style="ellipse;whiteSpace=wrap;html=1;aspect=fixed;fillColor=#000000;" vertex="1" parent="1">
          <mxGeometry x="104" y="260" width="10" height="10" as="geometry" />
        </mxCell>
        <mxCell id="zkEsj8cqpVbnqTSa8mRh-12" value="" style="ellipse;whiteSpace=wrap;html=1;aspect=fixed;fillColor=#000000;" vertex="1" parent="1">
          <mxGeometry x="145" y="285" width="10" height="10" as="geometry" />
        </mxCell>
        <mxCell id="zkEsj8cqpVbnqTSa8mRh-13" value="" style="ellipse;whiteSpace=wrap;html=1;aspect=fixed;fillColor=#000000;" vertex="1" parent="1">
          <mxGeometry x="184" y="259" width="10" height="10" as="geometry" />
        </mxCell>
        <mxCell id="zkEsj8cqpVbnqTSa8mRh-17" value="4mm" style="text;html=1;align=center;verticalAlign=middle;resizable=0;points=[];autosize=1;strokeColor=none;fillColor=none;fontSize=6;fontColor=#000000;" vertex="1" parent="1">
          <mxGeometry x="90" y="240" width="40" height="20" as="geometry" />
        </mxCell>
        <mxCell id="zkEsj8cqpVbnqTSa8mRh-14" value="" style="endArrow=classic;startArrow=classic;html=1;rounded=0;strokeWidth=0;strokeColor=#000000;" edge="1" parent="1">
          <mxGeometry width="50" height="50" relative="1" as="geometry">
            <mxPoint x="145" y="281" as="sourcePoint" />
            <mxPoint x="155" y="281" as="targetPoint" />
          </mxGeometry>
        </mxCell>
        <mxCell id="zkEsj8cqpVbnqTSa8mRh-15" value="" style="endArrow=classic;startArrow=classic;html=1;rounded=0;strokeWidth=0;strokeColor=#000000;" edge="1" parent="1">
          <mxGeometry width="50" height="50" relative="1" as="geometry">
            <mxPoint x="104" y="256" as="sourcePoint" />
            <mxPoint x="114" y="256" as="targetPoint" />
          </mxGeometry>
        </mxCell>
        <mxCell id="zkEsj8cqpVbnqTSa8mRh-16" value="" style="endArrow=classic;startArrow=classic;html=1;rounded=0;strokeWidth=0;strokeColor=#000000;" edge="1" parent="1">
          <mxGeometry width="50" height="50" relative="1" as="geometry">
            <mxPoint x="184" y="255" as="sourcePoint" />
            <mxPoint x="194" y="255" as="targetPoint" />
          </mxGeometry>
        </mxCell>
        <mxCell id="zkEsj8cqpVbnqTSa8mRh-26" value="7mm" style="text;html=1;align=center;verticalAlign=middle;resizable=0;points=[];autosize=1;strokeColor=none;fillColor=none;fontSize=6;fontColor=#000000;" vertex="1" parent="1">
          <mxGeometry x="176" y="262" width="40" height="20" as="geometry" />
        </mxCell>
        <mxCell id="zkEsj8cqpVbnqTSa8mRh-27" value="5mm" style="text;html=1;align=center;verticalAlign=middle;resizable=0;points=[];autosize=1;strokeColor=none;fillColor=none;fontSize=6;fontColor=#000000;" vertex="1" parent="1">
          <mxGeometry x="140" y="287" width="40" height="20" as="geometry" />
        </mxCell>
        <mxCell id="zkEsj8cqpVbnqTSa8mRh-18" value="4mm" style="text;html=1;align=center;verticalAlign=middle;resizable=0;points=[];autosize=1;strokeColor=none;fillColor=none;fontSize=6;fontColor=#000000;" vertex="1" parent="1">
          <mxGeometry x="130" y="265" width="40" height="20" as="geometry" />
        </mxCell>
        <mxCell id="zkEsj8cqpVbnqTSa8mRh-25" value="7mm" style="text;html=1;align=center;verticalAlign=middle;resizable=0;points=[];autosize=1;strokeColor=none;fillColor=none;fontSize=6;fontColor=#000000;" vertex="1" parent="1">
          <mxGeometry x="87" y="262" width="40" height="20" as="geometry" />
        </mxCell>
        <mxCell id="zkEsj8cqpVbnqTSa8mRh-19" value="4mm" style="text;html=1;align=center;verticalAlign=middle;resizable=0;points=[];autosize=1;strokeColor=none;fillColor=none;fontSize=6;fontColor=#000000;" vertex="1" parent="1">
          <mxGeometry x="169" y="239" width="40" height="20" as="geometry" />
        </mxCell>
        <mxCell id="zkEsj8cqpVbnqTSa8mRh-21" value="" style="endArrow=classic;startArrow=classic;html=1;rounded=0;strokeWidth=0;strokeColor=#FF0000;" edge="1" parent="1">
          <mxGeometry width="50" height="50" relative="1" as="geometry">
            <mxPoint x="109" y="265" as="sourcePoint" />
            <mxPoint x="95" y="265" as="targetPoint" />
          </mxGeometry>
        </mxCell>
        <mxCell id="zkEsj8cqpVbnqTSa8mRh-22" value="" style="endArrow=classic;startArrow=classic;html=1;rounded=0;strokeWidth=0;strokeColor=#FF0000;" edge="1" parent="1">
          <mxGeometry width="50" height="50" relative="1" as="geometry">
            <mxPoint x="204" y="264" as="sourcePoint" />
            <mxPoint x="190" y="264" as="targetPoint" />
          </mxGeometry>
        </mxCell>
        <mxCell id="zkEsj8cqpVbnqTSa8mRh-23" value="" style="endArrow=classic;startArrow=classic;html=1;rounded=0;strokeWidth=0;strokeColor=#FF0000;" edge="1" parent="1">
          <mxGeometry width="50" height="50" relative="1" as="geometry">
            <mxPoint x="150" y="300.2325581395349" as="sourcePoint" />
            <mxPoint x="150" y="290" as="targetPoint" />
          </mxGeometry>
        </mxCell>
        <mxCell id="zkEsj8cqpVbnqTSa8mRh-28" value="" style="ellipse;whiteSpace=wrap;html=1;aspect=fixed;fillColor=#000000;" vertex="1" parent="1">
          <mxGeometry x="370" y="260" width="10" height="10" as="geometry" />
        </mxCell>
        <mxCell id="zkEsj8cqpVbnqTSa8mRh-29" value="" style="ellipse;whiteSpace=wrap;html=1;aspect=fixed;fillColor=#000000;" vertex="1" parent="1">
          <mxGeometry x="411" y="285" width="10" height="10" as="geometry" />
        </mxCell>
        <mxCell id="zkEsj8cqpVbnqTSa8mRh-30" value="" style="ellipse;whiteSpace=wrap;html=1;aspect=fixed;fillColor=#000000;" vertex="1" parent="1">
          <mxGeometry x="450" y="260" width="10" height="10" as="geometry" />
        </mxCell>
      </root>
    </mxGraphModel>
  </diagram>
</mxfile>
